<?xml version="1.0" encoding="UTF-8"?>
<svg xmlns="http://www.w3.org/2000/svg" xmlns:xlink="http://www.w3.org/1999/xlink" viewBox="0 0 621.94 462.24">
  <defs>
    <style>
      .cls-1 {
        fill: url(#radial-gradient-8);
      }

      .cls-1, .cls-2, .cls-3, .cls-4, .cls-5, .cls-6, .cls-7, .cls-8, .cls-9 {
        mix-blend-mode: overlay;
      }

      .cls-10 {
        fill: url(#radial-gradient-7);
      }

      .cls-2 {
        fill: url(#radial-gradient-12);
      }

      .cls-3 {
        fill: url(#radial-gradient-5);
      }

      .cls-11 {
        fill: url(#radial-gradient-4);
      }

      .cls-12 {
        isolation: isolate;
      }

      .cls-4 {
        fill: url(#radial-gradient-6);
        opacity: .4;
      }

      .cls-13 {
        fill: url(#radial-gradient);
      }

      .cls-5 {
        fill: url(#radial-gradient-3);
        opacity: .3;
      }

      .cls-6 {
        fill: url(#radial-gradient-2);
        opacity: .5;
      }

      .cls-7 {
        fill: url(#Degradado_sin_nombre_34);
      }

      .cls-7, .cls-8 {
        opacity: .2;
      }

      .cls-8 {
        fill: url(#Degradado_sin_nombre_34-2);
      }

      .cls-9 {
        fill: url(#radial-gradient-10);
      }

      .cls-14 {
        fill: url(#radial-gradient-11);
      }

      .cls-15 {
        fill: url(#radial-gradient-9);
      }
    </style>
    <radialGradient id="radial-gradient" cx="1658.49" cy="40.58" fx="1658.49" fy="40.58" r="366.99" gradientTransform="translate(1907.13) rotate(-180) scale(1 -1)" gradientUnits="userSpaceOnUse">
      <stop offset="0" stop-color="#bad0d6"/>
      <stop offset=".2" stop-color="#9bbac2"/>
      <stop offset="1" stop-color="#5d8bb8"/>
    </radialGradient>
    <radialGradient id="radial-gradient-2" cx="693.34" cy="-2168.06" fx="693.34" fy="-2168.06" r="43.06" gradientTransform="translate(3176.35 -3554.06) rotate(53.97) scale(1.43 -2.08) skewX(-4.38)" gradientUnits="userSpaceOnUse">
      <stop offset="0" stop-color="#fff"/>
      <stop offset=".1" stop-color="#fff" stop-opacity=".85"/>
      <stop offset=".29" stop-color="#fff" stop-opacity=".59"/>
      <stop offset=".47" stop-color="#fff" stop-opacity=".38"/>
      <stop offset=".63" stop-color="#fff" stop-opacity=".22"/>
      <stop offset=".78" stop-color="#fff" stop-opacity=".1"/>
      <stop offset=".91" stop-color="#fff" stop-opacity=".03"/>
      <stop offset="1" stop-color="#fff" stop-opacity="0"/>
    </radialGradient>
    <radialGradient id="radial-gradient-3" cx="820.47" cy="-2104.27" fx="820.47" fy="-2104.27" r="23.67" xlink:href="#radial-gradient-2"/>
    <radialGradient id="Degradado_sin_nombre_34" data-name="Degradado sin nombre 34" cx="1513.02" cy="230.2" fx="1513.02" fy="230.2" r="24.75" gradientTransform="translate(1927.04 513.14) rotate(-146.99) scale(.84 -2.3) skewX(11.81)" gradientUnits="userSpaceOnUse">
      <stop offset="0" stop-color="#fff"/>
      <stop offset=".1" stop-color="#fff" stop-opacity=".85"/>
      <stop offset=".29" stop-color="#fff" stop-opacity=".59"/>
      <stop offset=".47" stop-color="#fff" stop-opacity=".38"/>
      <stop offset=".63" stop-color="#fff" stop-opacity=".22"/>
      <stop offset=".78" stop-color="#fff" stop-opacity=".1"/>
      <stop offset=".91" stop-color="#fff" stop-opacity=".03"/>
      <stop offset="1" stop-color="#fff" stop-opacity="0"/>
    </radialGradient>
    <radialGradient id="radial-gradient-4" cx="1765.36" cy="120.49" fx="1765.36" fy="120.49" r="366.98" gradientTransform="translate(1907.13) rotate(-180) scale(1 -1)" gradientUnits="userSpaceOnUse">
      <stop offset="0" stop-color="#fff"/>
      <stop offset=".2" stop-color="#d9f7ff"/>
      <stop offset="1" stop-color="#89c0f5"/>
    </radialGradient>
    <radialGradient id="radial-gradient-5" cx="689.66" cy="-2232.17" fx="689.66" fy="-2232.17" r="43.06" xlink:href="#radial-gradient-2"/>
    <radialGradient id="radial-gradient-6" cx="816.79" cy="-2168.38" fx="816.79" fy="-2168.38" r="23.67" xlink:href="#radial-gradient-2"/>
    <radialGradient id="Degradado_sin_nombre_34-2" data-name="Degradado sin nombre 34" cx="1620.92" cy="354.33" fx="1620.92" fy="354.33" r="24.75" gradientTransform="translate(2069.99 415.22) rotate(-146.99) scale(.84 -2.3) skewX(11.81)" xlink:href="#Degradado_sin_nombre_34"/>
    <radialGradient id="radial-gradient-7" cx="-7.34" cy="401.84" fx="-7.34" fy="401.84" r="51.5" gradientTransform="translate(370.46 102.34) rotate(30)" gradientUnits="userSpaceOnUse">
      <stop offset="0" stop-color="#d4f6ff"/>
      <stop offset=".2" stop-color="#d9f7ff"/>
      <stop offset="1" stop-color="#89c0f5"/>
    </radialGradient>
    <radialGradient id="radial-gradient-8" cx="1596.38" cy="-1607.58" fx="1596.38" fy="-1607.58" r="8.07" gradientTransform="translate(1048.65 -3609.99) rotate(156.04) scale(1.43 2.08) skewX(-4.38)" xlink:href="#radial-gradient-2"/>
    <radialGradient id="radial-gradient-9" cx="70.18" cy="357.08" fx="70.18" fy="357.08" r="51.5" xlink:href="#radial-gradient-7"/>
    <radialGradient id="radial-gradient-10" cx="1537.71" cy="-1625.05" fx="1537.71" fy="-1625.05" r="8.07" gradientTransform="translate(1048.65 -3609.99) rotate(156.04) scale(1.43 2.08) skewX(-4.38)" xlink:href="#radial-gradient-2"/>
    <radialGradient id="radial-gradient-11" cx="147.7" cy="312.33" fx="147.7" fy="312.33" r="51.5" xlink:href="#radial-gradient-7"/>
    <radialGradient id="radial-gradient-12" cx="1479.03" cy="-1642.52" fx="1479.03" fy="-1642.52" r="8.07" gradientTransform="translate(1048.65 -3609.99) rotate(156.04) scale(1.43 2.08) skewX(-4.38)" xlink:href="#radial-gradient-2"/>
  </defs>
  <g class="cls-12">
    <g id="OBJECTS">
      <g>
        <g>
          <g>
            <path class="cls-13" d="m304.05,0c69.62,0,127.97,48.15,143.64,112.96,12.65-6.13,26.78-9.66,41.79-9.66,53.11,0,96.16,43.05,96.16,96.15s-43.05,96.16-96.16,96.16h-185.43c-81.64,0-147.81-66.17-147.81-147.81S222.41,0,304.05,0Z"/>
            <path class="cls-6" d="m285.12,141.24c38.47-31.22,53.52-78.77,33.56-106.19-19.96-27.45-67.35-24.36-105.85,6.84-38.47,31.23-53.49,78.79-33.55,106.2,19.97,27.45,67.36,24.36,105.85-6.85Z"/>
            <path class="cls-5" d="m478.79,181.79c21.15-17.16,29.41-43.29,18.44-58.36-10.97-15.08-37-13.39-58.18,3.76-21.14,17.16-29.39,43.3-18.44,58.36,10.99,15.09,37.02,13.39,58.18-3.76Z"/>
            <path class="cls-7" d="m525.71,219.18c23.27-23.54,47.29-32.73,53.7-20.56,6.37,12.16-7.31,41.11-30.57,64.65-23.28,23.53-47.3,32.73-53.69,20.56-6.37-12.19,7.3-41.11,30.56-64.64Z"/>
          </g>
          <g>
            <path class="cls-11" d="m197.19,79.92c69.63,0,127.97,48.15,143.64,112.96,12.66-6.13,26.79-9.66,41.8-9.66,53.1,0,96.15,43.05,96.15,96.15s-43.05,96.15-96.15,96.15h-185.43c-81.63,0-147.81-66.17-147.81-147.81S115.55,79.92,197.19,79.92Z"/>
            <path class="cls-3" d="m178.26,221.16c38.48-31.23,53.52-78.77,33.56-106.19-19.97-27.45-67.34-24.36-105.85,6.84-38.47,31.22-53.48,78.78-33.55,106.2,19.97,27.45,67.36,24.36,105.84-6.84Z"/>
            <path class="cls-4" d="m371.92,261.71c21.15-17.16,29.41-43.29,18.45-58.36-10.98-15.09-37.01-13.39-58.17,3.76-21.15,17.16-29.39,43.29-18.44,58.36,10.98,15.09,37.02,13.4,58.16-3.76Z"/>
            <path class="cls-8" d="m418.86,299.09c23.27-23.53,47.27-32.73,53.68-20.56,6.37,12.16-7.3,41.11-30.56,64.65-23.27,23.52-47.3,32.73-53.7,20.55-6.37-12.18,7.3-41.11,30.58-64.64Z"/>
          </g>
        </g>
        <g>
          <g>
            <path class="cls-10" d="m191.84,451.54c-5.92,10.24-19.01,13.74-29.25,7.83-10.24-5.91-13.74-19-7.83-29.24,5.91-10.24,42.46-30.75,42.46-30.75,0,0,.52,41.92-5.39,52.16Z"/>
            <path class="cls-1" d="m155.38,447.98c-3.32-8.66-1.3-17.79,4.5-20.37,5.81-2.58,13.21,2.35,16.53,11.02,3.31,8.67,1.29,17.8-4.51,20.37-5.82,2.58-13.21-2.35-16.53-11.02Z"/>
          </g>
          <g>
            <path class="cls-15" d="m281.34,451.54c-5.91,10.24-18.99,13.74-29.23,7.83-10.24-5.91-13.75-19-7.84-29.24,5.92-10.24,42.47-30.75,42.47-30.75,0,0,.52,41.92-5.4,52.16Z"/>
            <path class="cls-9" d="m244.9,447.98c-3.31-8.66-1.3-17.79,4.51-20.37,5.81-2.58,13.21,2.35,16.52,11.02,3.33,8.67,1.3,17.8-4.51,20.37-5.81,2.58-13.21-2.35-16.52-11.02Z"/>
          </g>
          <g>
            <path class="cls-14" d="m370.86,451.54c-5.91,10.24-19,13.74-29.24,7.83-10.24-5.91-13.75-19-7.84-29.24,5.92-10.24,42.46-30.75,42.46-30.75,0,0,.52,41.92-5.39,52.16Z"/>
            <path class="cls-2" d="m334.41,447.98c-3.31-8.66-1.31-17.79,4.5-20.37,5.81-2.58,13.21,2.35,16.52,11.02,3.33,8.67,1.3,17.8-4.5,20.37-5.81,2.58-13.21-2.35-16.52-11.02Z"/>
          </g>
        </g>
      </g>
    </g>
  </g>
</svg>