<?xml version="1.0" encoding="UTF-8"?>
<svg id="Capa_1" data-name="Capa 1" xmlns="http://www.w3.org/2000/svg" xmlns:xlink="http://www.w3.org/1999/xlink" viewBox="0 0 14 14">
  <defs>
    <style>
      .cls-1 {
        fill: #fff;
        fill-rule: evenodd;
      }

      .cls-2 {
        clip-path: url(#clippath);
      }

      .cls-3 {
        fill: none;
      }
    </style>
    <clipPath id="clippath">
      <rect class="cls-3" width="14" height="14"/>
    </clipPath>
  </defs>
  <g class="cls-2">
    <path class="cls-1" d="m8.02,13.63c1.65-1.35,4.74-4.36,4.74-7.87,0-1.53-.61-2.99-1.69-4.07-1.08-1.08-2.55-1.69-4.07-1.69s-2.99.61-4.07,1.69c-1.08,1.08-1.69,2.55-1.69,4.07,0,3.51,3.09,6.52,4.74,7.87.29.24.65.37,1.02.37s.73-.13,1.02-.37Zm-1.02-6.59c.38,0,.75-.11,1.07-.32.32-.21.56-.51.71-.86.15-.35.18-.74.11-1.11-.07-.37-.26-.71-.53-.98-.27-.27-.61-.45-.98-.53-.37-.07-.76-.04-1.11.11-.35.15-.65.39-.86.71-.21.32-.32.69-.32,1.07,0,.51.2,1,.56,1.36.36.36.85.56,1.36.56Z"/>
  </g>
</svg>