<?xml version="1.0" encoding="UTF-8"?>
<svg xmlns="http://www.w3.org/2000/svg" xmlns:xlink="http://www.w3.org/1999/xlink" viewBox="0 0 621.94 430.79">
  <defs>
    <style>
      .cls-1 {
        fill: url(#radial-gradient-7);
      }

      .cls-2 {
        fill: url(#radial-gradient-10);
      }

      .cls-3 {
        fill: url(#radial-gradient-8);
      }

      .cls-4 {
        fill: url(#radial-gradient-5);
      }

      .cls-5 {
        fill: url(#radial-gradient-4);
      }

      .cls-6 {
        isolation: isolate;
      }

      .cls-7 {
        fill: url(#Degradado_sin_nombre_34);
      }

      .cls-7, .cls-8, .cls-9, .cls-10, .cls-11 {
        mix-blend-mode: overlay;
      }

      .cls-7, .cls-11 {
        opacity: .4;
      }

      .cls-12 {
        fill: url(#radial-gradient-6);
      }

      .cls-13 {
        fill: url(#radial-gradient-12);
      }

      .cls-8 {
        fill: url(#radial-gradient-2);
      }

      .cls-14 {
        fill: url(#radial-gradient);
      }

      .cls-9 {
        fill: url(#radial-gradient-13);
      }

      .cls-10 {
        fill: url(#Degradado_sin_nombre_34-2);
        opacity: .2;
      }

      .cls-15 {
        fill: url(#radial-gradient-3);
      }

      .cls-11 {
        fill: url(#radial-gradient-14);
      }

      .cls-16 {
        fill: url(#radial-gradient-11);
      }

      .cls-17 {
        fill: url(#radial-gradient-9);
      }
    </style>
    <radialGradient id="radial-gradient" cx="52.41" cy="112.81" fx="52.41" fy="112.81" r="218.99" gradientTransform="translate(447.61) rotate(-180) scale(1 -1)" gradientUnits="userSpaceOnUse">
      <stop offset="0" stop-color="#fff8c7"/>
      <stop offset=".16" stop-color="#ffe436"/>
      <stop offset="1" stop-color="#fe761c"/>
    </radialGradient>
    <radialGradient id="radial-gradient-2" cx="1280.15" cy="-1727.2" fx="1280.15" fy="-1727.2" r="32.87" gradientTransform="translate(-1307.37 -3608.56) rotate(126.03) scale(1.43 2.08) skewX(-4.38)" gradientUnits="userSpaceOnUse">
      <stop offset="0" stop-color="#fff"/>
      <stop offset=".1" stop-color="#fff" stop-opacity=".85"/>
      <stop offset=".29" stop-color="#fff" stop-opacity=".59"/>
      <stop offset=".47" stop-color="#fff" stop-opacity=".38"/>
      <stop offset=".63" stop-color="#fff" stop-opacity=".22"/>
      <stop offset=".78" stop-color="#fff" stop-opacity=".1"/>
      <stop offset=".91" stop-color="#fff" stop-opacity=".03"/>
      <stop offset="1" stop-color="#fff" stop-opacity="0"/>
    </radialGradient>
    <radialGradient id="Degradado_sin_nombre_34" data-name="Degradado sin nombre 34" cx="-2733.22" cy="3074.19" fx="-2733.22" fy="3074.19" r="31.72" gradientTransform="translate(-3580.96 -523.99) rotate(-136.79) scale(1.61 .68) skewX(11.83)" gradientUnits="userSpaceOnUse">
      <stop offset="0" stop-color="#fff"/>
      <stop offset=".1" stop-color="#fff" stop-opacity=".85"/>
      <stop offset=".29" stop-color="#fff" stop-opacity=".59"/>
      <stop offset=".47" stop-color="#fff" stop-opacity=".38"/>
      <stop offset=".63" stop-color="#fff" stop-opacity=".22"/>
      <stop offset=".78" stop-color="#fff" stop-opacity=".1"/>
      <stop offset=".91" stop-color="#fff" stop-opacity=".03"/>
      <stop offset="1" stop-color="#fff" stop-opacity="0"/>
    </radialGradient>
    <radialGradient id="radial-gradient-3" cx="371.37" cy="8.89" fx="371.37" fy="8.89" r="38.1" gradientTransform="matrix(1,0,0,1,0,0)" xlink:href="#radial-gradient"/>
    <radialGradient id="radial-gradient-4" cx="776.02" cy="-178.22" fx="776.02" fy="-178.22" r="38.1" gradientTransform="translate(-176.71 733.46) rotate(-45)" xlink:href="#radial-gradient"/>
    <radialGradient id="radial-gradient-5" cx="1194.37" cy="-24.58" fx="1194.37" fy="-24.58" r="38.11" gradientTransform="translate(217.15 1376.96) rotate(-90)" xlink:href="#radial-gradient"/>
    <radialGradient id="radial-gradient-6" cx="1381.65" cy="380.07" fx="1381.65" fy="380.07" r="38.11" gradientTransform="translate(950.61 1553.67) rotate(-135)" xlink:href="#radial-gradient"/>
    <radialGradient id="radial-gradient-7" cx="1227.84" cy="798.43" fx="1227.84" fy="798.43" r="38.1" gradientTransform="translate(1594.12 1159.81) rotate(-180)" xlink:href="#radial-gradient"/>
    <radialGradient id="radial-gradient-8" cx="823.35" cy="985.7" fx="823.35" fy="985.7" r="38.1" gradientTransform="translate(1770.83 426.36) rotate(135)" xlink:href="#radial-gradient"/>
    <radialGradient id="radial-gradient-9" cx="404.83" cy="831.9" fx="404.83" fy="831.9" r="38.1" gradientTransform="translate(1376.97 -217.15) rotate(90)" xlink:href="#radial-gradient"/>
    <radialGradient id="radial-gradient-10" cx="217.72" cy="427.41" fx="217.72" fy="427.41" r="38.1" gradientTransform="translate(643.51 -393.86) rotate(45)" xlink:href="#radial-gradient"/>
    <radialGradient id="radial-gradient-11" cx="1742.63" cy="150.29" fx="1742.63" fy="150.29" r="376.12" gradientTransform="translate(1907.13) rotate(-180) scale(1 -1)" gradientUnits="userSpaceOnUse">
      <stop offset="0" stop-color="#fff"/>
      <stop offset=".2" stop-color="#d9f7ff"/>
      <stop offset="1" stop-color="#89c0f5"/>
    </radialGradient>
    <radialGradient id="radial-gradient-12" cx="339.08" cy="184.49" fx="339.08" fy="184.49" r="214.87" gradientUnits="userSpaceOnUse">
      <stop offset="0" stop-color="#ffe436"/>
      <stop offset=".08" stop-color="#fece30" stop-opacity=".81"/>
      <stop offset=".18" stop-color="#feb72b" stop-opacity=".6"/>
      <stop offset=".28" stop-color="#fea326" stop-opacity=".41"/>
      <stop offset=".38" stop-color="#fe9322" stop-opacity=".26"/>
      <stop offset=".48" stop-color="#fe861f" stop-opacity=".15"/>
      <stop offset=".58" stop-color="#fe7d1d" stop-opacity=".07"/>
      <stop offset=".68" stop-color="#fe771c" stop-opacity=".02"/>
      <stop offset=".77" stop-color="#fe761c" stop-opacity="0"/>
    </radialGradient>
    <radialGradient id="radial-gradient-13" cx="729.5" cy="-2262.35" fx="729.5" fy="-2262.35" r="44.14" gradientTransform="translate(3214.49 -3608.56) rotate(53.97) scale(1.43 -2.08) skewX(-4.38)" xlink:href="#radial-gradient-2"/>
    <radialGradient id="radial-gradient-14" cx="859.79" cy="-2196.97" fx="859.79" fy="-2196.97" r="24.26" gradientTransform="translate(3214.49 -3608.56) rotate(53.97) scale(1.43 -2.08) skewX(-4.38)" xlink:href="#radial-gradient-2"/>
    <radialGradient id="Degradado_sin_nombre_34-2" data-name="Degradado sin nombre 34" cx="1575.29" cy="398.63" fx="1575.29" fy="398.63" r="25.36" gradientTransform="translate(2129.69 347.96) rotate(-146.99) scale(.84 -2.3) skewX(11.81)" xlink:href="#Degradado_sin_nombre_34"/>
  </defs>
  <g class="cls-6">
    <g id="OBJECTS">
      <g>
        <g>
          <path class="cls-14" d="m253.46,185.12c0,63.72,51.65,115.36,115.35,115.36s115.36-51.65,115.36-115.36-51.66-115.34-115.36-115.34-115.35,51.64-115.35,115.34Z"/>
          <g>
            <path class="cls-8" d="m386.4,173.27c-29.38-23.85-40.86-60.13-25.63-81.08,15.23-20.94,51.41-18.58,80.8,5.24,29.37,23.82,40.83,60.13,25.61,81.06-15.24,20.95-51.41,18.59-80.78-5.21Z"/>
            <path class="cls-7" d="m266.86,210.62c3.89-12.75,23.67-7.46,44.2,11.81,20.53,19.28,34.01,45.25,30.14,58.02-3.88,12.75-23.67,7.47-44.21-11.81-20.52-19.29-34.01-45.27-30.13-58.02Z"/>
          </g>
          <path class="cls-15" d="m382.81,35.67c0,7.73-6.26,13.99-14,13.99h0c-7.73,0-13.99-6.26-13.99-13.99V15.82c0-7.74,6.26-14,13.99-14h0c7.73,0,14,6.26,14,14v19.85Z"/>
          <path class="cls-5" d="m273.02,69.56c5.47,5.47,5.47,14.32,0,19.78h0c-5.47,5.47-14.32,5.47-19.79,0l-14.03-14.03c-5.47-5.47-5.47-14.32,0-19.79h0c5.46-5.46,14.32-5.46,19.79,0l14.03,14.03Z"/>
          <path class="cls-4" d="m219.35,171.15c7.74,0,13.99,6.26,13.99,13.99h0c0,7.73-6.25,13.99-13.99,13.99h-19.85c-7.74,0-14-6.26-14-13.99h0c0-7.74,6.26-13.99,14-13.99h19.85Z"/>
          <path class="cls-12" d="m253.24,280.93c5.47-5.47,14.33-5.47,19.79,0h0c5.47,5.47,5.47,14.32,0,19.78l-14.03,14.04c-5.47,5.47-14.32,5.47-19.79.01h0c-5.47-5.47-5.47-14.33,0-19.8l14.03-14.04Z"/>
          <path class="cls-1" d="m354.83,334.6c0-7.73,6.26-14,13.99-13.99h0c7.74,0,14,6.25,14,13.99v19.85c0,7.73-6.26,13.99-13.99,14h0c-7.73,0-13.99-6.26-13.99-14v-19.85Z"/>
          <path class="cls-3" d="m464.62,300.72c-5.47-5.47-5.47-14.33,0-19.78h0c5.47-5.47,14.32-5.47,19.79,0l14.03,14.03c5.47,5.47,5.46,14.33.01,19.8h0c-5.47,5.47-14.33,5.46-19.8-.01l-14.03-14.03Z"/>
          <path class="cls-17" d="m518.29,199.12c-7.73,0-14-6.26-13.99-13.99h0c0-7.73,6.25-13.99,13.99-13.99h19.85c7.74,0,13.99,6.26,14,13.98h0c0,7.74-6.27,13.99-14,14h-19.85Z"/>
          <path class="cls-2" d="m484.4,89.34c-5.47,5.47-14.32,5.47-19.79,0h0c-5.47-5.47-5.47-14.31,0-19.79l14.03-14.03c5.47-5.47,14.32-5.46,19.79-.01h0c5.46,5.47,5.46,14.33,0,19.8l-14.03,14.03Z"/>
        </g>
        <g>
          <path class="cls-16" d="m221.29,108.7c71.36,0,131.15,49.35,147.21,115.78,12.97-6.28,27.45-9.9,42.84-9.9,54.42,0,98.55,44.12,98.55,98.55s-44.12,98.55-98.55,98.55h-190.05c-83.66,0-151.48-67.82-151.48-151.48S137.62,108.7,221.29,108.7Z"/>
          <path class="cls-13" d="m221.29,108.7c71.36,0,131.15,49.35,147.21,115.78,12.97-6.28,27.45-9.9,42.84-9.9,54.42,0,98.55,44.12,98.55,98.55s-44.12,98.55-98.55,98.55h-190.05c-83.66,0-151.48-67.82-151.48-151.48S137.62,108.7,221.29,108.7Z"/>
          <path class="cls-9" d="m201.89,253.46c39.43-32,54.85-80.73,34.39-108.83-20.46-28.13-69.02-24.97-108.49,7.01-39.43,32-54.81,80.75-34.38,108.84,20.46,28.13,69.03,24.97,108.48-7.02Z"/>
          <path class="cls-11" d="m400.38,295.02c21.68-17.59,30.15-44.37,18.91-59.82-11.25-15.46-37.93-13.72-59.62,3.86-21.67,17.58-30.12,44.37-18.9,59.81,11.26,15.46,37.95,13.72,59.62-3.85Z"/>
          <path class="cls-10" d="m448.47,333.33c23.85-24.12,48.46-33.54,55.03-21.07,6.53,12.46-7.49,42.13-31.33,66.26-23.85,24.11-48.48,33.55-55.03,21.07-6.53-12.48,7.47-42.13,31.33-66.25Z"/>
        </g>
      </g>
    </g>
  </g>
</svg>