<?xml version="1.0" encoding="UTF-8"?>
<svg id="Capa_1" data-name="Capa 1" xmlns="http://www.w3.org/2000/svg" viewBox="0 0 20 30">
  <defs>
    <style>
      .cls-1 {
        fill-rule: evenodd;
      }

      .cls-1, .cls-2, .cls-3, .cls-4 {
        fill: #fff;
        stroke: #fff;
      }

      .cls-1, .cls-4 {
        stroke-miterlimit: 10;
      }

      .cls-2 {
        stroke-linecap: round;
      }

      .cls-2, .cls-3 {
        stroke-width: 2px;
      }
    </style>
  </defs>
  <g id="Thermometer-Hot">
    <g id="Group">
      <path id="Combined-Shape" class="cls-3" d="m4,17.8V4c0-1.66,1.34-3,3-3s3,1.34,3,3v13.8c1.79,1.04,3,2.98,3,5.2,0,3.31-2.69,6-6,6s-6-2.69-6-6c0-2.22,1.21-4.16,3-5.2Z"/>
      <path id="Path-19" class="cls-2" d="m14,6h5"/>
      <path id="Path-20" class="cls-2" d="m14,10h5"/>
      <path id="Path-21" class="cls-2" d="m14,14h5"/>
    </g>
    <g id="Group-2">
      <circle id="Oval" class="cls-4" cx="7" cy="23" r="3"/>
      <path id="Rectangle-2" class="cls-1" d="m7,11h0c.55,0,1,.45,1,1v9c0,.55-.45,1-1,1h0c-.55,0-1-.45-1-1v-9c0-.55.45-1,1-1Z"/>
    </g>
  </g>
</svg>