<?xml version="1.0" encoding="UTF-8"?>
<svg xmlns="http://www.w3.org/2000/svg" xmlns:xlink="http://www.w3.org/1999/xlink" viewBox="0 0 621.94 445.15">
  <defs>
    <style>
      .cls-1 {
        fill: url(#radial-gradient-7);
      }

      .cls-2 {
        fill: url(#radial-gradient-10);
      }

      .cls-3 {
        fill: url(#radial-gradient-8);
      }

      .cls-4 {
        fill: url(#radial-gradient-5);
      }

      .cls-5 {
        fill: url(#radial-gradient-4);
      }

      .cls-6 {
        isolation: isolate;
      }

      .cls-7 {
        fill: url(#Degradado_sin_nombre_34);
        opacity: .4;
      }

      .cls-7, .cls-8 {
        mix-blend-mode: overlay;
      }

      .cls-9 {
        fill: url(#radial-gradient-6);
      }

      .cls-8 {
        fill: url(#radial-gradient-2);
      }

      .cls-10 {
        fill: url(#radial-gradient);
      }

      .cls-11 {
        fill: url(#radial-gradient-3);
      }

      .cls-12 {
        fill: url(#radial-gradient-9);
      }
    </style>
    <radialGradient id="radial-gradient" cx="110.01" cy="134.75" fx="110.01" fy="134.75" r="265.89" gradientTransform="translate(447.61) rotate(-180) scale(1 -1)" gradientUnits="userSpaceOnUse">
      <stop offset="0" stop-color="#fff8c7"/>
      <stop offset=".16" stop-color="#ffe436"/>
      <stop offset="1" stop-color="#fe761c"/>
    </radialGradient>
    <radialGradient id="radial-gradient-2" cx="1314.24" cy="-1704.07" fx="1314.24" fy="-1704.07" r="39.91" gradientTransform="translate(-1294.9 -3590.75) rotate(126.03) scale(1.43 2.08) skewX(-4.38)" gradientUnits="userSpaceOnUse">
      <stop offset="0" stop-color="#fff"/>
      <stop offset=".1" stop-color="#fff" stop-opacity=".85"/>
      <stop offset=".29" stop-color="#fff" stop-opacity=".59"/>
      <stop offset=".47" stop-color="#fff" stop-opacity=".38"/>
      <stop offset=".63" stop-color="#fff" stop-opacity=".22"/>
      <stop offset=".78" stop-color="#fff" stop-opacity=".1"/>
      <stop offset=".91" stop-color="#fff" stop-opacity=".03"/>
      <stop offset="1" stop-color="#fff" stop-opacity="0"/>
    </radialGradient>
    <radialGradient id="Degradado_sin_nombre_34" data-name="Degradado sin nombre 34" cx="-2690.68" cy="2959" fx="-2690.68" fy="2959" r="38.51" gradientTransform="translate(-3582.67 -510.68) rotate(-136.79) scale(1.61 .68) skewX(11.83)" gradientUnits="userSpaceOnUse">
      <stop offset="0" stop-color="#fff"/>
      <stop offset=".1" stop-color="#fff" stop-opacity=".85"/>
      <stop offset=".29" stop-color="#fff" stop-opacity=".59"/>
      <stop offset=".47" stop-color="#fff" stop-opacity=".38"/>
      <stop offset=".63" stop-color="#fff" stop-opacity=".22"/>
      <stop offset=".78" stop-color="#fff" stop-opacity=".1"/>
      <stop offset=".91" stop-color="#fff" stop-opacity=".03"/>
      <stop offset="1" stop-color="#fff" stop-opacity="0"/>
    </radialGradient>
    <radialGradient id="radial-gradient-3" cx="308.66" cy="8.58" fx="308.66" fy="8.58" r="46.27" gradientTransform="matrix(1,0,0,1,0,0)" xlink:href="#radial-gradient"/>
    <radialGradient id="radial-gradient-4" cx="710.81" cy="-231.96" fx="710.81" fy="-231.96" r="46.27" gradientTransform="translate(-182.16 735.71) rotate(-45)" xlink:href="#radial-gradient"/>
    <radialGradient id="radial-gradient-5" cx="1165.18" cy="-117.88" fx="1165.18" fy="-117.88" r="46.26" gradientTransform="translate(209.45 1384.67) rotate(-90)" xlink:href="#radial-gradient"/>
    <radialGradient id="radial-gradient-6" cx="1405.89" cy="284.27" fx="1405.89" fy="284.27" r="46.27" gradientTransform="translate(945.16 1566.82) rotate(-135)" xlink:href="#radial-gradient"/>
    <radialGradient id="radial-gradient-7" cx="1291.64" cy="738.64" fx="1291.64" fy="738.64" r="46.27" gradientTransform="translate(1594.12 1175.21) rotate(-180)" xlink:href="#radial-gradient"/>
    <radialGradient id="radial-gradient-8" cx="889.65" cy="979.35" fx="889.65" fy="979.35" r="46.27" gradientTransform="translate(1776.27 439.51) rotate(135)" xlink:href="#radial-gradient"/>
    <radialGradient id="radial-gradient-9" cx="435.11" cy="865.1" fx="435.11" fy="865.1" r="46.26" gradientTransform="translate(1384.67 -209.45) rotate(90)" xlink:href="#radial-gradient"/>
    <radialGradient id="radial-gradient-10" cx="194.57" cy="463.11" fx="194.57" fy="463.11" r="46.27" gradientTransform="translate(648.96 -391.61) rotate(45)" xlink:href="#radial-gradient"/>
  </defs>
  <g class="cls-6">
    <g id="OBJECTS">
      <g>
        <path class="cls-10" d="m165.5,222.56c0,77.36,62.71,140.07,140.06,140.07s140.07-62.72,140.07-140.07-62.72-140.05-140.07-140.05-140.06,62.71-140.06,140.05Z"/>
        <g>
          <path class="cls-8" d="m326.91,208.16c-35.67-28.95-49.61-73-31.12-98.44,18.5-25.43,62.42-22.57,98.11,6.35,35.66,28.94,49.58,73.01,31.1,98.43-18.51,25.44-62.43,22.57-98.09-6.34Z"/>
          <path class="cls-7" d="m181.77,253.52c4.73-15.49,28.74-9.07,53.67,14.34,24.93,23.41,41.29,54.94,36.59,70.45-4.71,15.48-28.74,9.07-53.67-14.34-24.92-23.42-41.3-54.98-36.59-70.45Z"/>
        </g>
        <path class="cls-11" d="m322.55,41.09c0,9.39-7.6,16.99-16.99,16.99h0c-9.39,0-16.99-7.6-16.99-16.99v-24.1c0-9.39,7.6-16.99,16.99-16.99h0c9.39,0,16.99,7.6,16.99,16.99v24.1Z"/>
        <path class="cls-5" d="m189.25,82.24c6.64,6.64,6.64,17.39,0,24.03h0c-6.64,6.64-17.39,6.64-24.03,0l-17.04-17.04c-6.64-6.64-6.64-17.39,0-24.03h0c6.64-6.64,17.39-6.64,24.03,0l17.04,17.04Z"/>
        <path class="cls-4" d="m124.09,205.59c9.39,0,16.99,7.6,16.99,16.99h0c0,9.39-7.6,16.99-16.99,16.99h-24.1c-9.39,0-16.99-7.6-17-16.99h0c0-9.39,7.61-16.99,17-16.99h24.1Z"/>
        <path class="cls-9" d="m165.23,338.89c6.64-6.64,17.39-6.64,24.02,0h0c6.64,6.64,6.64,17.38,0,24.02l-17.04,17.04c-6.64,6.64-17.39,6.64-24.03,0h0c-6.64-6.64-6.64-17.39,0-24.03l17.04-17.05Z"/>
        <path class="cls-1" d="m288.58,404.06c0-9.39,7.61-17,16.99-16.99h0c9.39,0,16.99,7.6,16.99,16.99v24.1c0,9.39-7.6,16.99-16.98,17h0c-9.39,0-16.99-7.61-16.99-17v-24.1Z"/>
        <path class="cls-3" d="m421.89,362.91c-6.64-6.64-6.65-17.39,0-24.02h0c6.64-6.64,17.38-6.64,24.02,0l17.04,17.04c6.64,6.64,6.64,17.39,0,24.03h0c-6.65,6.64-17.39,6.63-24.03,0l-17.04-17.03Z"/>
        <path class="cls-12" d="m487.05,239.56c-9.39,0-17-7.6-16.99-16.99h0c0-9.39,7.6-16.99,16.99-16.99h24.1c9.39,0,16.99,7.61,17,16.98h0c0,9.4-7.61,16.99-17,16.99h-24.1Z"/>
        <path class="cls-2" d="m445.9,106.25c-6.64,6.64-17.39,6.64-24.02,0h0c-6.64-6.64-6.64-17.38,0-24.02l17.04-17.04c6.64-6.64,17.39-6.64,24.03,0h0c6.64,6.64,6.63,17.39,0,24.03l-17.04,17.04Z"/>
      </g>
    </g>
  </g>
</svg>